<?xml version="1.0" encoding="UTF-8" standalone="no"?>
<svg width="26px" height="26px" viewBox="0 0 26 26" version="1.1" xmlns="http://www.w3.org/2000/svg" xmlns:xlink="http://www.w3.org/1999/xlink">
    <!-- Generator: Sketch 40 (33762) - http://www.bohemiancoding.com/sketch -->
    <title>Group 5</title>
    <desc>Created with Sketch.</desc>
    <defs>
        <linearGradient x1="50%" y1="0%" x2="50%" y2="100%" id="linearGradient-1">
            <stop stop-color="#8490E7" offset="0%"></stop>
            <stop stop-color="#4C54A3" offset="100%"></stop>
        </linearGradient>
    </defs>
    <g id="Page-1" stroke="none" stroke-width="1" fill="none" fill-rule="evenodd">
        <g id="ACCUEIL" transform="translate(-45.000000, -434.000000)">
            <g id="Group-3" transform="translate(30.000000, 421.000000)">
                <g id="Group-5" transform="translate(15.000000, 13.000000)">
                    <polyline id="Path-5" fill="#FFFFFF" points="4.56361855 16.6068519 2.38554953 15.9812755 1.18499676 15.1829799 1.10952052 14.4381114 0.908533228 13.4857539 0.833056988 11.9391977 1.260473 11.065426 2.05876851 10.3426067 2.65890355 9.99066694 3.61126105 9.46261594 3.57620842 8.17075671 3.27458614 6.82236096 3.54794016 5.32329542 4.27415162 4.07553466 5.82664417 3.4027502 7.51086678 3.4027502 8.91268953 3.92458218 9.73925329 4.20104571 10.0880836 2.22735617 10.7416456 1.23090019 11.5178919 0.954436664 13.4443734 0.571119131 15.3680282 1.21874484 16.5465317 3.47200742 16.7223602 4.57503472 18.2810718 3.12317716 20.0348343 3.12317716 21.8324126 4.24825369 22.8791861 5.86406713 22.6781988 7.76538993 21.898843 9.03237311 23.0270291 9.61356842 24.7333009 10.9930592 25.6164012 13.1459695 24.9498357 14.9972575 23.9251115 15.8518069 21.524006 16.4711643 22.8251937 18.0397698 22.7497175 19.4695781 22.1744585 21.3901233 21.0363786 22.3614205 19.8168861 22.8580938 18.1920268 22.6065063 16.7429961 21.836479 16.1960053 23.2351923 15.5927608 24.5674751 14.0402682 25.2682452 12.2113122 25.2179277 10.7874402 24.6460609 9.91366842 23.3448731 9.46109367 21.8706836 8.2636504 22.2477821 6.36826393 22.5214189 4.53308884 21.9713186 3.45522029 20.8400231 3.22879157 19.1868955 3.67542999 17.7189251 4.30383329 17.0334199"></polyline>
                    <g id="noun_673982_cc" fill="url(#linearGradient-1)">
                        <g id="Group">
                            <path d="M26,13 C26,11.0237045 24.60575,9.36886364 22.75,8.96172727 C23.1742727,8.30197727 23.4041364,7.53556818 23.4041364,6.73252273 C23.4041364,5.62781818 22.9736591,4.589 22.1924773,3.80781818 C21.4112955,3.02634091 20.3724773,2.59615909 19.2677727,2.59615909 C18.4647273,2.59615909 17.6983182,2.82602273 17.0385682,3.25029545 C16.6311364,1.39425 14.9762955,0 13,0 C11.0237045,0 9.36886364,1.39425 8.96172727,3.25 C8.30197727,2.82572727 7.53556818,2.59586364 6.73252273,2.59586364 C5.62781818,2.59586364 4.589,3.02634091 3.80781818,3.80752273 C3.02634091,4.58870455 2.59615909,5.62752273 2.59615909,6.73222727 C2.59615909,7.53527273 2.82602273,8.30168182 3.25029545,8.96143182 C1.39425,9.36886364 0,11.0237045 0,13 C0,14.9762955 1.39425,16.6311364 3.25,17.0382727 C2.82572727,17.6980227 2.59586364,18.4644318 2.59586364,19.2674773 C2.59586364,20.3721818 3.02634091,21.411 3.80752273,22.1921818 C4.58870455,22.9736591 5.62752273,23.4038409 6.73222727,23.4038409 C7.53527273,23.4038409 8.30168182,23.1739773 8.96143182,22.7497045 C9.36886364,24.60575 11.0237045,26 13,26 C14.9762955,26 16.6311364,24.60575 17.0382727,22.75 C17.6980227,23.1742727 18.4644318,23.4041364 19.2674773,23.4041364 C20.3721818,23.4041364 21.411,22.9736591 22.1921818,22.1924773 C22.9736591,21.4112955 23.4038409,20.3724773 23.4038409,19.2677727 C23.4038409,18.4647273 23.1739773,17.6983182 22.7497045,17.0385682 C24.60575,16.6311364 26,14.9762955 26,13 L26,13 Z M17.1363636,7.97727273 L17.1363636,4.68531818 L17.1783182,4.64336364 C17.7364318,4.08525 18.4783182,3.77797727 19.2674773,3.77797727 C20.0566364,3.77797727 20.7985227,4.08554545 21.3566364,4.64336364 C21.91475,5.20118182 22.2220227,5.94336364 22.2220227,6.73252273 C22.2220227,7.52168182 21.9144545,8.26386364 21.3566364,8.82168182 L21.3146818,8.86363636 L18.0227273,8.86363636 C17.6708409,8.86363636 17.3307727,8.91268182 17.0042955,8.99570455 C17.0873182,8.66922727 17.1363636,8.32915909 17.1363636,7.97727273 L17.1363636,7.97727273 Z M9.44834091,13.5971136 C9.92047727,13.5971136 10.3748864,13.7093864 10.7840909,13.9173864 C10.3973409,15.0983182 9.28613636,15.9545455 7.97727273,15.9545455 L5.86713636,15.9545455 L7.35918182,14.4625 C7.91729545,13.9043864 8.65918182,13.5971136 9.44834091,13.5971136 L9.44834091,13.5971136 Z M5.86713636,10.0454545 L7.97727273,10.0454545 C9.28613636,10.0454545 10.3973409,10.9016818 10.7843864,12.0829091 C10.3751818,12.2909091 9.92077273,12.4031818 9.44863636,12.4031818 C8.65947727,12.4031818 7.91729545,12.0956136 7.35947727,11.5377955 L5.86713636,10.0454545 L5.86713636,10.0454545 Z M10.0454545,18.0227273 C10.0454545,16.7138636 10.9016818,15.6026591 12.0829091,15.2156136 C12.2909091,15.6248182 12.4031818,16.0792273 12.4031818,16.5513636 C12.4031818,17.3405227 12.0956136,18.0827045 11.5377955,18.6405227 L10.0454545,20.1328636 L10.0454545,18.0227273 L10.0454545,18.0227273 Z M11.8181818,13 C11.8181818,12.3473409 12.3473409,11.8181818 13,11.8181818 C13.6526591,11.8181818 14.1818182,12.3473409 14.1818182,13 C14.1818182,13.6526591 13.6526591,14.1818182 13,14.1818182 C12.3473409,14.1818182 11.8181818,13.6526591 11.8181818,13 L11.8181818,13 Z M13.9170909,10.7843864 C13.7090909,10.3751818 13.5968182,9.92077273 13.5968182,9.44863636 C13.5968182,8.65947727 13.9043864,7.91729545 14.4622045,7.35947727 L15.95425,5.86743182 L15.95425,7.97727273 C15.9545455,9.28613636 15.0983182,10.3973409 13.9170909,10.7843864 L13.9170909,10.7843864 Z M16.5516591,12.4028864 C16.0795227,12.4028864 15.6251136,12.2906136 15.2159091,12.0826136 C15.6026591,10.9016818 16.7138636,10.0454545 18.0227273,10.0454545 L20.1328636,10.0454545 L18.6408182,11.5375 C18.0827045,12.0956136 17.3408182,12.4028864 16.5516591,12.4028864 L16.5516591,12.4028864 Z M20.1328636,15.9545455 L18.0227273,15.9545455 C16.7138636,15.9545455 15.6026591,15.0983182 15.2156136,13.9170909 C15.6248182,13.7090909 16.0792273,13.5968182 16.5513636,13.5968182 C17.3405227,13.5968182 18.0827045,13.9043864 18.6405227,14.4622045 L20.1328636,15.9545455 L20.1328636,15.9545455 Z M10.0454545,4.13636364 C10.0454545,2.50722727 11.3708636,1.18181818 13,1.18181818 C14.6291364,1.18181818 15.9545455,2.50722727 15.9545455,4.13636364 L15.9545455,4.19604545 L13.6269545,6.52363636 C13.3808409,6.76975 13.1740227,7.04334091 13,7.33465909 C12.8259773,7.04363636 12.6191591,6.76975 12.3730455,6.52363636 L10.0454545,4.19604545 L10.0454545,4.13636364 L10.0454545,4.13636364 Z M10.0454545,5.86713636 L11.5375,7.35918182 C12.0956136,7.91729545 12.4028864,8.65918182 12.4028864,9.44834091 C12.4028864,9.92047727 12.2906136,10.3748864 12.0826136,10.7840909 C10.9016818,10.3973409 10.0454545,9.28613636 10.0454545,7.97727273 L10.0454545,5.86713636 L10.0454545,5.86713636 Z M4.64336364,4.64336364 C5.20147727,4.08525 5.94336364,3.77797727 6.73252273,3.77797727 C7.52168182,3.77797727 8.26386364,4.08554545 8.82168182,4.64336364 L8.86363636,4.68531818 L8.86363636,7.97727273 C8.86363636,8.32915909 8.91268182,8.66922727 8.99570455,8.99570455 C8.66922727,8.91268182 8.32915909,8.86363636 7.97727273,8.86363636 L4.68531818,8.86363636 L4.64336364,8.82168182 C4.08525,8.26356818 3.77797727,7.52168182 3.77797727,6.73252273 C3.77797727,5.94336364 4.08525,5.20118182 4.64336364,4.64336364 L4.64336364,4.64336364 Z M1.18181818,13 C1.18181818,11.3708636 2.50722727,10.0454545 4.13636364,10.0454545 L4.19604545,10.0454545 L6.52363636,12.3730455 C6.76975,12.6191591 7.04334091,12.8259773 7.33465909,13 C7.04363636,13.1740227 6.76975,13.3808409 6.52363636,13.6269545 L4.19604545,15.9545455 L4.13636364,15.9545455 C2.50722727,15.9545455 1.18181818,14.6291364 1.18181818,13 L1.18181818,13 Z M8.86363636,18.0227273 L8.86363636,21.3146818 L8.82168182,21.3566364 C8.26356818,21.91475 7.52168182,22.2220227 6.73252273,22.2220227 C5.94336364,22.2220227 5.20147727,21.9144545 4.64336364,21.3566364 C4.08525,20.7988182 3.77797727,20.0566364 3.77797727,19.2674773 C3.77797727,18.4783182 4.08554545,17.7361364 4.64336364,17.1783182 L4.68531818,17.1363636 L7.97727273,17.1363636 C8.32915909,17.1363636 8.66922727,17.0873182 8.99570455,17.0042955 C8.91268182,17.3307727 8.86363636,17.6708409 8.86363636,18.0227273 L8.86363636,18.0227273 Z M15.9545455,21.8636364 C15.9545455,23.4927727 14.6291364,24.8181818 13,24.8181818 C11.3708636,24.8181818 10.0454545,23.4927727 10.0454545,21.8636364 L10.0454545,21.8039545 L12.3730455,19.4763636 C12.6191591,19.23025 12.8259773,18.9566591 13,18.6653409 C13.1740227,18.9563636 13.3808409,19.23025 13.6269545,19.4763636 L15.9545455,21.8039545 L15.9545455,21.8636364 L15.9545455,21.8636364 Z M15.9545455,20.1328636 L14.4625,18.6408182 C13.9043864,18.0827045 13.5971136,17.3408182 13.5971136,16.5516591 C13.5971136,16.0795227 13.7093864,15.6251136 13.9173864,15.2159091 C15.0983182,15.6026591 15.9545455,16.7138636 15.9545455,18.0227273 L15.9545455,20.1328636 L15.9545455,20.1328636 Z M21.3566364,21.3566364 C20.7985227,21.91475 20.0566364,22.2220227 19.2674773,22.2220227 C18.4783182,22.2220227 17.7361364,21.9144545 17.1783182,21.3566364 L17.1363636,21.3146818 L17.1363636,18.0227273 C17.1363636,17.6708409 17.0873182,17.3307727 17.0042955,17.0042955 C17.3307727,17.0873182 17.6708409,17.1363636 18.0227273,17.1363636 L21.3146818,17.1363636 L21.3566364,17.1783182 C21.91475,17.7364318 22.2220227,18.4783182 22.2220227,19.2674773 C22.2220227,20.0566364 21.91475,20.7988182 21.3566364,21.3566364 L21.3566364,21.3566364 Z M21.8636364,15.9545455 L21.8039545,15.9545455 L19.4763636,13.6269545 C19.23025,13.3808409 18.9566591,13.1740227 18.6653409,13 C18.9563636,12.8259773 19.23025,12.6191591 19.4763636,12.3730455 L21.8039545,10.0454545 L21.8636364,10.0454545 C23.4927727,10.0454545 24.8181818,11.3708636 24.8181818,13 C24.8181818,14.6291364 23.4927727,15.9545455 21.8636364,15.9545455 L21.8636364,15.9545455 Z" id="Shape"></path>
                        </g>
                    </g>
                </g>
            </g>
        </g>
    </g>
</svg>